<?xml version="1.0" standalone="no"?>
<!DOCTYPE svg PUBLIC "-//W3C//DTD SVG 20010904//EN"
 "http://www.w3.org/TR/2001/REC-SVG-20010904/DTD/svg10.dtd">
<svg version="1.0" xmlns="http://www.w3.org/2000/svg"
 width="1024.000000pt" height="1024.000000pt" viewBox="0 0 1024.000000 1024.000000"
 preserveAspectRatio="xMidYMid meet">

<g transform="translate(0.000000,1024.000000) scale(0.100000,-0.100000)"
fill="#000000" stroke="none">
<path d="M6978 9519 c-451 -44 -908 -276 -1283 -654 -437 -439 -689 -978 -755
-1615 -5 -52 -10 -191 -10 -308 l0 -214 -28 -28 c-21 -20 -42 -29 -83 -34
-160 -21 -346 -66 -458 -112 -449 -182 -737 -504 -831 -931 -28 -124 -30 -320
-6 -436 67 -313 244 -584 513 -786 211 -159 399 -234 690 -275 19 -3 23 3 28
43 33 248 113 514 163 539 9 5 60 12 112 16 136 9 249 39 369 97 90 44 117 63
191 138 131 130 185 258 184 431 -2 157 -59 287 -178 405 -123 120 -259 183
-451 207 -89 11 -213 4 -317 -18 -27 -6 -28 -5 -22 27 17 96 56 245 79 300 87
205 228 330 441 391 67 19 102 22 229 22 130 -1 163 -4 250 -27 388 -104 756
-472 894 -892 82 -254 81 -546 -5 -804 -65 -194 -173 -362 -338 -527 -327
-325 -722 -481 -1300 -510 l-139 -7 6 -156 c19 -477 106 -823 308 -1223 134
-263 305 -495 522 -705 394 -381 811 -606 1237 -667 422 -60 823 -2 1177 173
562 277 928 784 1008 1397 23 173 23 4924 0 5097 -71 538 -377 1017 -850 1327
-104 68 -314 170 -441 214 -277 95 -609 134 -906 105z"/>
<path d="M2830 9504 c-14 -2 -65 -9 -115 -15 -187 -23 -435 -99 -618 -190
-478 -240 -834 -668 -981 -1181 -66 -228 -60 -7 -64 -2743 -2 -2188 -1 -2492
13 -2584 94 -635 477 -1159 1045 -1430 203 -96 391 -148 630 -172 117 -12
2061 -7 3197 8 l503 6 -53 22 c-150 60 -417 225 -587 362 -126 101 -333 312
-438 448 -322 416 -545 955 -601 1455 -10 84 -31 391 -31 446 0 19 -8 22 -63
28 -151 15 -376 85 -536 166 -158 80 -357 243 -480 394 -242 298 -357 649
-322 985 46 451 300 838 707 1077 197 116 373 180 645 234 l56 11 6 182 c17
502 98 837 301 1252 129 262 265 456 473 675 188 198 453 398 678 514 l50 25
-280 1 c-154 0 -678 4 -1165 10 -1321 14 -1942 18 -1970 14z"/>
</g>
</svg>
